[   0s] CDP targets: 1
[   0s]   page: file:///Users/runner/.comfy-test-cache/desktop/ComfyUI.app/Contents/Resources/desktop-ui/index.html#/welcome | ComfyUI
[   0s] Main page: file:///Users/runner/.comfy-test-cache/desktop/ComfyUI.app/Contents/Resources/desktop-ui/index.html#/welcome | ComfyUI
[   0s] Buttons: ['Get Started']
[   1s]   wizard: COMFY_TEST_GPU=0 platform=darwin preferred=['Apple Silicon', 'MPS', 'M4', 'M3', 'M2', 'M1']
[   1s]   clicked [BTN|Get Started]
[   3s]   url: file:///Users/runner/.comfy-test-cache/desktop/ComfyUI.app/Contents/Resources/desktop-ui/index.html#/welcome -> file:///Users/runner/.comfy-test-cache/desktop/ComfyUI.app/Contents/Resources/desktop-ui/index.html#/install
[   3s]   clicked [BTN|Next]
[  10s]   clicked [BTN|Next]
[  12s]   clicked [BTN|Install]
[  13s]   url: file:///Users/runner/.comfy-test-cache/desktop/ComfyUI.app/Contents/Resources/desktop-ui/index.html#/install -> file:///Users/runner/.comfy-test-cache/desktop/ComfyUI.app/Contents/Resources/desktop-ui/index.html#/server-start
[  98s]   /system_stats up after 97s
[  98s]   app: waiting for backend stability (continuous /system_stats up for 30s)
[  98s]   app: /system_stats up; awaiting 30s of stability
[ 128s]   app: backend stable for 30s; proceeding
[ 128s]   capturing canvas load...
[ 136s]   post: waiting for Cloud upsell
[ 137s]   post: clicked Cloud upsell via [button:has-text("Continue Locally"):visible]
[ 139s]   post: waiting for Close Templates
[ 148s]   post: Close Templates not found, skipping
[ 148s]   post: pressed Escape (Close Templates fallback)
[ 150s]   post: waiting for Extensions
[ 151s]   post: clicked Extensions via [button[aria-label="Extensions"]:visible]
[ 153s]   ext: node meta = display='SAM3' publisher='pznodes' version='0.1.19'
[ 156s]   ext: searching "SAM3"
[ 159s]   ext: clicking SAM3 by pznodes tile
[ 163s]   ext: scrolling to + opening version selector
[ 166s]   ext: selected 0.1.19
[ 168s]   ext: clicking right-panel Install
[ 169s]   ext: clicked Install (last of 8 visible)
[ 178s]   ext: waiting for "Apply Changes" toast
[ 191s]   ext: clicked Apply Changes
[ 197s]   app: Apply Changes already triggered in-app restart, skipping pkill
[ 202s]   app: relaunching with CDP
[ 202s]   app: waiting for CDP
[ 202s]   app: CDP up after 1s
[ 202s]   app: reconnecting Playwright
[ 202s]   app: attached to http://127.0.0.1:8000/
[ 209s]   app: server ready after 4s
[ 209s]   app: waiting for main canvas (window.app.graph)
[ 209s]   app: canvas ready after 1s (http://127.0.0.1:8000/)
[ 215s]   app: forcing renderer reload to refresh node-pack manifest
[ 216s]   app: canvas re-ready after reload in 2s
[ 220s]   ext: closing Nodes Manager dialog
[ 220s]   ext: dismissing What's New popup
[ 220s]   ext: closed What's New popup
[ 222s]   ext: dismissing Node Pack Issues modal (if present)
[ 223s]   ext: closed Node Pack Issues modal
[ 225s]   ext: opening Templates sidebar
[ 226s]   ext: clicked Templates
[ 230s]   ext: locating "comfyui-sam3" section in Templates panel
[ 232s]   ext: clicked comfyui-sam3 section
[ 234s]   ext: fetching comfy-test.toml from https://raw.githubusercontent.com/PozzettiAndrea/ComfyUI-SAM3/main/comfy-test.toml
[ 234s]   ext: cpu spec = exclude ['video_point_prompt']
[ 234s]   ext: picking first matching comfyui-sam3 template
[ 234s]   ext: 5 visible cards
[ 234s]   ext: skipping video_point_prompt (not in CPU list)
[ 236s]   ext: clicked template scene_seg_interactive
[ 241s]   ext: installing WS execution listener
[ 241s]   ext: clicking Run
[ 242s]   ext: clicked Run
[ 242s]   ext: waiting for execution_success / execution_error
[ 348s]   ext: WS events=225 elapsed=106s
[ 348s]     ws: {'type': 'progress', 'ts': 1778494493340}
[ 348s]     ws: {'type': 'progress_state', 'ts': 1778494493385}
[ 348s]     ws: {'type': 'progress_state', 'ts': 1778494493409}
[ 348s]     ws: {'type': 'executing', 'ts': 1778494493417}
[ 348s]     ws: {'type': 'progress_state', 'ts': 1778494549582}
[ 348s]     ws: {'type': 'progress', 'ts': 1778494549716}
[ 348s]     ws: {'type': 'executed', 'ts': 1778494562943}
[ 348s]     ws: {'type': 'progress_state', 'ts': 1778494563016}
[ 348s]     ws: {'type': 'progress_state', 'ts': 1778494563020}
[ 348s]     ws: {'type': 'executing', 'ts': 1778494563020}
[ 348s]     ws: {'type': 'executed', 'ts': 1778494564317}
[ 348s]     ws: {'type': 'progress_state', 'ts': 1778494564322}
[ 348s]     ws: {'type': 'execution_success', 'ts': 1778494564327}
[ 348s]     ws: {'type': 'status', 'ts': 1778494567732}
[ 348s]     ws: {'type': 'executing', 'ts': 1778494567776}
[ 348s]   ext: execution_success after 106s
[ 353s]   ext: fetching comfy-test.toml from https://raw.githubusercontent.com/PozzettiAndrea/ComfyUI-SAM3/main/comfy-test.toml
[ 353s]   ext: cpu spec = exclude ['video_point_prompt']
[ 353s]   loop: workflows/ from $COMFY_TEST_WORKFLOWS -> ['image_seg_point', 'image_seg_text', 'scene_seg', 'scene_seg_interactive', 'video_point_prompt']
[ 353s]   loop: spec=exclude items=['video_point_prompt'] -> 4 workflow(s) ['image_seg_point', 'image_seg_text', 'scene_seg', 'scene_seg_interactive']
[ 353s]   loop: matching=4 first_ran='scene_seg_interactive' remaining=3 -> ['image_seg_point', 'image_seg_text', 'scene_seg']
[ 353s]   loop: full restart for workflow 2/4 (image_seg_point)
[ 353s]   loop: closing current browser
[ 353s]   loop: killing ComfyUI process
[ 359s]   loop: launching ComfyUI with --remote-debugging-port=0
[ 359s]   loop: waiting for DevToolsActivePort at /Users/runner/Library/Application Support/ComfyUI/DevToolsActivePort
[ 360s]   loop: DevToolsActivePort -> 49902 after 2s
[ 360s]   loop: reconnecting Playwright on port 49902
[ 361s]   loop: attached to file:///Users/runner/.comfy-test-cache/desktop/ComfyUI.app/Contents/Resources/desktop-ui/index.html#/server-start
[ 370s]   loop: server ready after 8s
[ 372s]   loop: canvas ready after 2s
[ 372s]   loop: forcing renderer reload
[ 373s]   loop: canvas ready after 1s
[ 376s]   ext: closing Nodes Manager dialog
[ 376s]   ext: dismissing What's New popup
[ 376s]   ext: What's New popup not present
[ 376s]   ext: dismissing Node Pack Issues modal (if present)
[ 376s]   ext: Node Pack Issues modal not present
[ 376s]   ext: opening Templates sidebar
[ 377s]   ext: clicked Templates
[ 381s]   ext: locating "comfyui-sam3" section in Templates panel
[ 383s]   ext: clicked comfyui-sam3 section
[ 385s]   ext: clicking template image_seg_point
[ 387s]   ext: clicked template image_seg_point
[ 392s]   ext: installing WS execution listener
[ 392s]   ext: clicking Run
[ 393s]   ext: clicked Run
[ 393s]   ext: waiting for execution_success / execution_error
[ 430s]   ext: WS events=28 elapsed=37s
[ 430s]     ws: {'type': 'progress_state', 'ts': 1778494618612}
[ 430s]     ws: {'type': 'progress_state', 'ts': 1778494618631}
[ 430s]     ws: {'type': 'executing', 'ts': 1778494618632}
[ 430s]     ws: {'type': 'progress_state', 'ts': 1778494651967}
[ 430s]     ws: {'type': 'progress_state', 'ts': 1778494652039}
[ 430s]     ws: {'type': 'executing', 'ts': 1778494652039}
[ 430s]     ws: {'type': 'executed', 'ts': 1778494652090}
[ 430s]     ws: {'type': 'progress_state', 'ts': 1778494652094}
[ 430s]     ws: {'type': 'progress_state', 'ts': 1778494652098}
[ 430s]     ws: {'type': 'executing', 'ts': 1778494652099}
[ 430s]     ws: {'type': 'executed', 'ts': 1778494652131}
[ 430s]     ws: {'type': 'progress_state', 'ts': 1778494652190}
[ 430s]     ws: {'type': 'execution_success', 'ts': 1778494652199}
[ 430s]     ws: {'type': 'status', 'ts': 1778494652250}
[ 430s]     ws: {'type': 'executing', 'ts': 1778494652251}
[ 430s]   ext: execution_success after 37s
[ 436s]   loop: full restart for workflow 3/4 (image_seg_text)
[ 436s]   loop: closing current browser
[ 436s]   loop: killing ComfyUI process
[ 441s]   loop: launching ComfyUI with --remote-debugging-port=0
[ 441s]   loop: waiting for DevToolsActivePort at /Users/runner/Library/Application Support/ComfyUI/DevToolsActivePort
[ 442s]   loop: DevToolsActivePort -> 50052 after 2s
[ 442s]   loop: reconnecting Playwright on port 50052
[ 443s]   loop: attached to file:///Users/runner/.comfy-test-cache/desktop/ComfyUI.app/Contents/Resources/desktop-ui/index.html#/desktop-start
[ 451s]   loop: server ready after 8s
[ 455s]   loop: canvas ready after 3s
[ 455s]   loop: forcing renderer reload
[ 457s]   loop: canvas ready after 2s
[ 460s]   ext: closing Nodes Manager dialog
[ 460s]   ext: dismissing What's New popup
[ 460s]   ext: What's New popup not present
[ 460s]   ext: dismissing Node Pack Issues modal (if present)
[ 460s]   ext: Node Pack Issues modal not present
[ 460s]   ext: opening Templates sidebar
[ 461s]   ext: clicked Templates
[ 465s]   ext: locating "comfyui-sam3" section in Templates panel
[ 467s]   ext: clicked comfyui-sam3 section
[ 469s]   ext: clicking template image_seg_text
[ 471s]   ext: clicked template image_seg_text
[ 476s]   ext: installing WS execution listener
[ 476s]   ext: clicking Run
[ 477s]   ext: clicked Run
[ 477s]   ext: waiting for execution_success / execution_error
[ 541s]   ext: WS events=22 elapsed=64s
[ 541s]     ws: {'type': 'progress_state', 'ts': 1778494698816}
[ 541s]     ws: {'type': 'executing', 'ts': 1778494698816}
[ 541s]     ws: {'type': 'progress_state', 'ts': 1778494701931}
[ 541s]     ws: {'type': 'progress_state', 'ts': 1778494701933}
[ 541s]     ws: {'type': 'executing', 'ts': 1778494701933}
[ 541s]     ws: {'type': 'progress_state', 'ts': 1778494762758}
[ 541s]     ws: {'type': 'progress_state', 'ts': 1778494762907}
[ 541s]     ws: {'type': 'executing', 'ts': 1778494762908}
[ 541s]     ws: {'type': 'executed', 'ts': 1778494763011}
[ 541s]     ws: {'type': 'progress_state', 'ts': 1778494763030}
[ 541s]     ws: {'type': 'progress_state', 'ts': 1778494763033}
[ 541s]     ws: {'type': 'executing', 'ts': 1778494763033}
[ 541s]     ws: {'type': 'executed', 'ts': 1778494763050}
[ 541s]     ws: {'type': 'progress_state', 'ts': 1778494763054}
[ 541s]     ws: {'type': 'execution_success', 'ts': 1778494763063}
[ 541s]   ext: execution_success after 64s
[ 546s]   loop: full restart for workflow 4/4 (scene_seg)
[ 546s]   loop: closing current browser
[ 546s]   loop: killing ComfyUI process
[ 552s]   loop: launching ComfyUI with --remote-debugging-port=0
[ 552s]   loop: waiting for DevToolsActivePort at /Users/runner/Library/Application Support/ComfyUI/DevToolsActivePort
[ 554s]   loop: DevToolsActivePort -> 50238 after 3s
[ 554s]   loop: reconnecting Playwright on port 50238
[ 555s]   loop: attached to file:///Users/runner/.comfy-test-cache/desktop/ComfyUI.app/Contents/Resources/desktop-ui/index.html#/server-start
[ 563s]   loop: server ready after 7s
[ 565s]   loop: canvas ready after 2s
[ 565s]   loop: forcing renderer reload
[ 567s]   loop: canvas ready after 2s
[ 570s]   ext: closing Nodes Manager dialog
[ 570s]   ext: dismissing What's New popup
[ 570s]   ext: What's New popup not present
[ 570s]   ext: dismissing Node Pack Issues modal (if present)
[ 570s]   ext: Node Pack Issues modal not present
[ 570s]   ext: opening Templates sidebar
[ 571s]   ext: clicked Templates
[ 575s]   ext: locating "comfyui-sam3" section in Templates panel
[ 577s]   ext: clicked comfyui-sam3 section
[ 579s]   ext: clicking template scene_seg
[ 581s]   ext: clicked template scene_seg
[ 586s]   ext: installing WS execution listener
[ 586s]   ext: clicking Run
[ 587s]   ext: clicked Run
[ 587s]   ext: waiting for execution_success / execution_error
[ 668s]   ext: WS events=53 elapsed=80s
[ 668s]     ws: {'type': 'progress_state', 'ts': 1778494886791}
[ 668s]     ws: {'type': 'progress_state', 'ts': 1778494886792}
[ 668s]     ws: {'type': 'executing', 'ts': 1778494886792}
[ 668s]     ws: {'type': 'progress_state', 'ts': 1778494888805}
[ 668s]     ws: {'type': 'progress_state', 'ts': 1778494888822}
[ 668s]     ws: {'type': 'executing', 'ts': 1778494888824}
[ 668s]     ws: {'type': 'progress_state', 'ts': 1778494888945}
[ 668s]     ws: {'type': 'progress_state', 'ts': 1778494888948}
[ 668s]     ws: {'type': 'executing', 'ts': 1778494888948}
[ 668s]     ws: {'type': 'executed', 'ts': 1778494889152}
[ 668s]     ws: {'type': 'progress_state', 'ts': 1778494889165}
[ 668s]     ws: {'type': 'progress_state', 'ts': 1778494889171}
[ 668s]     ws: {'type': 'executing', 'ts': 1778494889172}
[ 668s]     ws: {'type': 'progress_state', 'ts': 1778494889543}
[ 668s]     ws: {'type': 'execution_success', 'ts': 1778494889546}
[ 668s]   ext: execution_success after 80s
[ 673s] Captured 716 frames
[ 674s] Wrote /Users/runner/work/comfy-gpu-ci/comfy-gpu-ci/comfy-test-logs/SAM3-1009/dev/macos-desktop/results.json (4 workflow(s), sha=f054ce14b7cc)
ffmpeg version 7.1 Copyright (c) 2000-2024 the FFmpeg developers
  built with Apple clang version 13.1.6 (clang-1316.0.21.2.5)
  configuration: --prefix=/Volumes/tempdisk/sw --extra-cflags=-fno-stack-check --arch=arm64 --cc=/usr/bin/clang --enable-gpl --enable-libvmaf --enable-libopenjpeg --enable-libopus --enable-libmp3lame --enable-libx264 --enable-libx265 --enable-libvpx --enable-libwebp --enable-libass --enable-libfreetype --enable-fontconfig --enable-libtheora --enable-libvorbis --enable-libsnappy --enable-libaom --enable-libvidstab --enable-libzimg --enable-libsvtav1 --enable-libharfbuzz --enable-libkvazaar --pkg-config-flags=--static --enable-ffplay --enable-postproc --enable-neon --enable-runtime-cpudetect --disable-indev=qtkit --disable-indev=x11grab_xcb
  libavutil      59. 39.100 / 59. 39.100
  libavcodec     61. 19.100 / 61. 19.100
  libavformat    61.  7.100 / 61.  7.100
  libavdevice    61.  3.100 / 61.  3.100
  libavfilter    10.  4.100 / 10.  4.100
  libswscale      8.  3.100 /  8.  3.100
  libswresample   5.  3.100 /  5.  3.100
  libpostproc    58.  3.100 / 58.  3.100
Input #0, image2, from '/Users/runner/work/comfy-gpu-ci/comfy-gpu-ci/comfy-test-logs/SAM3-1009/dev/macos-desktop/debug/electron_inspect/frames/frame_%06d.png':
  Duration: 00:02:23.20, start: 0.000000, bitrate: N/A
  Stream #0:0: Video: png, rgb24(pc, gbr/bt709/iec61966-2-1), 1024x653, 5 fps, 5 tbr, 5 tbn
Stream mapping:
  Stream #0:0 -> #0:0 (png (native) -> h264 (libx264))
Press [q] to stop, [?] for help
[libx264 @ 0x12ee05510] using cpu capabilities: ARMv8 NEON
[libx264 @ 0x12ee05510] profile High, level 3.1, 4:2:0, 8-bit
[libx264 @ 0x12ee05510] 264 - core 164 r3190 7ed753b - H.264/MPEG-4 AVC codec - Copyleft 2003-2024 - http://www.videolan.org/x264.html - options: cabac=1 ref=3 deblock=1:0:0 analyse=0x3:0x113 me=hex subme=7 psy=1 psy_rd=1.00:0.00 mixed_ref=1 me_range=16 chroma_me=1 trellis=1 8x8dct=1 cqm=0 deadzone=21,11 fast_pskip=1 chroma_qp_offset=-2 threads=4 lookahead_threads=1 sliced_threads=0 nr=0 decimate=1 interlaced=0 bluray_compat=0 constrained_intra=0 bframes=3 b_pyramid=2 b_adapt=1 b_bias=0 direct=1 weightb=1 open_gop=0 weightp=2 keyint=250 keyint_min=5 scenecut=40 intra_refresh=0 rc_lookahead=40 rc=crf mbtree=1 crf=23.0 qcomp=0.60 qpmin=0 qpmax=69 qpstep=4 ip_ratio=1.40 aq=1:1.00
Output #0, mp4, to '/Users/runner/work/comfy-gpu-ci/comfy-gpu-ci/comfy-test-logs/SAM3-1009/dev/macos-desktop/debug/electron_inspect/driver.mp4':
  Metadata:
    encoder         : Lavf61.7.100
  Stream #0:0: Video: h264 (avc1 / 0x31637661), yuv420p(tv, unknown/bt709/iec61966-2-1, progressive), 1024x654, q=2-31, 5 fps, 10240 tbn
      Metadata:
        encoder         : Lavc61.19.100 libx264
      Side data:
        cpb: bitrate max/min/avg: 0/0/0 buffer size: 0 vbv_delay: N/A
frame=   81 fps=0.0 q=23.0 size=     256KiB time=00:00:15.80 bitrate= 132.8kbits/s speed=24.3x    
frame=  191 fps=165 q=23.0 size=     512KiB time=00:00:37.80 bitrate= 111.0kbits/s speed=32.7x    
frame=  302 fps=173 q=23.0 size=    1024KiB time=00:01:00.00 bitrate= 139.8kbits/s speed=34.3x    
frame=  430 fps=181 q=23.0 size=    1536KiB time=00:01:25.60 bitrate= 147.0kbits/s speed=36.1x    
frame=  555 fps=185 q=23.0 size=    2048KiB time=00:01:50.80 bitrate= 151.4kbits/s speed=36.9x    
frame=  652 fps=184 q=23.0 size=    2304KiB time=00:02:10.00 bitrate= 145.2kbits/s speed=36.8x    
[out#0/mp4 @ 0x600003a88000] video:2612KiB audio:0KiB subtitle:0KiB other streams:0KiB global headers:0KiB muxing overhead: 0.350217%
frame=  716 fps=197 q=-1.0 Lsize=    2621KiB time=00:02:22.80 bitrate= 150.4kbits/s speed=39.2x    
[libx264 @ 0x12ee05510] frame I:19    Avg QP: 9.44  size: 42543
[libx264 @ 0x12ee05510] frame P:211   Avg QP:16.46  size:  5760
[libx264 @ 0x12ee05510] frame B:486   Avg QP:22.39  size:  1338
[libx264 @ 0x12ee05510] consecutive B-frames:  6.7%  7.0%  4.2% 82.1%
[libx264 @ 0x12ee05510] mb I  I16..4: 51.3% 21.6% 27.1%
[libx264 @ 0x12ee05510] mb P  I16..4:  3.9%  3.5%  3.7%  P16..4:  2.6%  1.0%  0.7%  0.0%  0.0%    skip:84.7%
[libx264 @ 0x12ee05510] mb B  I16..4:  0.6%  0.5%  0.4%  B16..8:  3.3%  0.8%  0.3%  direct: 0.3%  skip:93.7%  L0:46.8% L1:47.2% BI: 6.0%
[libx264 @ 0x12ee05510] 8x8 transform intra:27.6% inter:51.0%
[libx264 @ 0x12ee05510] coded y,uvDC,uvAC intra: 36.5% 19.9% 16.0% inter: 1.5% 1.1% 0.3%
[libx264 @ 0x12ee05510] i16 v,h,dc,p: 66% 30%  1%  2%
[libx264 @ 0x12ee05510] i8 v,h,dc,ddl,ddr,vr,hd,vl,hu: 36% 20% 28%  2%  2%  2%  3%  2%  4%
[libx264 @ 0x12ee05510] i4 v,h,dc,ddl,ddr,vr,hd,vl,hu: 34% 29% 17%  2%  3%  3%  4%  3%  4%
[libx264 @ 0x12ee05510] i8c dc,h,v,p: 78% 12%  7%  3%
[libx264 @ 0x12ee05510] Weighted P-Frames: Y:2.4% UV:2.4%
[libx264 @ 0x12ee05510] ref P L0: 58.2%  4.5% 15.3% 22.0%  0.0%
[libx264 @ 0x12ee05510] ref B L0: 78.3% 18.2%  3.5%
[libx264 @ 0x12ee05510] ref B L1: 93.3%  6.7%
[libx264 @ 0x12ee05510] kb/s:149.38
[ 678s] Wrote /Users/runner/work/comfy-gpu-ci/comfy-gpu-ci/comfy-test-logs/SAM3-1009/dev/macos-desktop/debug/electron_inspect/driver.mp4
ffmpeg version 7.1 Copyright (c) 2000-2024 the FFmpeg developers
  built with Apple clang version 13.1.6 (clang-1316.0.21.2.5)
  configuration: --prefix=/Volumes/tempdisk/sw --extra-cflags=-fno-stack-check --arch=arm64 --cc=/usr/bin/clang --enable-gpl --enable-libvmaf --enable-libopenjpeg --enable-libopus --enable-libmp3lame --enable-libx264 --enable-libx265 --enable-libvpx --enable-libwebp --enable-libass --enable-libfreetype --enable-fontconfig --enable-libtheora --enable-libvorbis --enable-libsnappy --enable-libaom --enable-libvidstab --enable-libzimg --enable-libsvtav1 --enable-libharfbuzz --enable-libkvazaar --pkg-config-flags=--static --enable-ffplay --enable-postproc --enable-neon --enable-runtime-cpudetect --disable-indev=qtkit --disable-indev=x11grab_xcb
  libavutil      59. 39.100 / 59. 39.100
  libavcodec     61. 19.100 / 61. 19.100
  libavformat    61.  7.100 / 61.  7.100
  libavdevice    61.  3.100 / 61.  3.100
  libavfilter    10.  4.100 / 10.  4.100
  libswscale      8.  3.100 /  8.  3.100
  libswresample   5.  3.100 /  5.  3.100
  libpostproc    58.  3.100 / 58.  3.100
Input #0, image2, from '/Users/runner/work/comfy-gpu-ci/comfy-gpu-ci/comfy-test-logs/SAM3-1009/dev/macos-desktop/debug/electron_inspect/frames/frame_%06d.png':
  Duration: 00:01:27.20, start: 0.000000, bitrate: N/A
  Stream #0:0: Video: png, rgb24(pc, gbr/bt709/iec61966-2-1), 1024x653, 5 fps, 5 tbr, 5 tbn
Stream mapping:
  Stream #0:0 -> #0:0 (png (native) -> h264 (libx264))
Press [q] to stop, [?] for help
[libx264 @ 0x13d706140] using cpu capabilities: ARMv8 NEON
[libx264 @ 0x13d706140] profile High, level 3.1, 4:2:0, 8-bit
[libx264 @ 0x13d706140] 264 - core 164 r3190 7ed753b - H.264/MPEG-4 AVC codec - Copyleft 2003-2024 - http://www.videolan.org/x264.html - options: cabac=1 ref=3 deblock=1:0:0 analyse=0x3:0x113 me=hex subme=7 psy=1 psy_rd=1.00:0.00 mixed_ref=1 me_range=16 chroma_me=1 trellis=1 8x8dct=1 cqm=0 deadzone=21,11 fast_pskip=1 chroma_qp_offset=-2 threads=4 lookahead_threads=1 sliced_threads=0 nr=0 decimate=1 interlaced=0 bluray_compat=0 constrained_intra=0 bframes=3 b_pyramid=2 b_adapt=1 b_bias=0 direct=1 weightb=1 open_gop=0 weightp=2 keyint=250 keyint_min=5 scenecut=40 intra_refresh=0 rc_lookahead=40 rc=crf mbtree=1 crf=23.0 qcomp=0.60 qpmin=0 qpmax=69 qpstep=4 ip_ratio=1.40 aq=1:1.00
Output #0, mp4, to '/Users/runner/work/comfy-gpu-ci/comfy-gpu-ci/comfy-test-logs/SAM3-1009/dev/macos-desktop/videos/scene_seg_interactive/driver.mp4':
  Metadata:
    encoder         : Lavf61.7.100
  Stream #0:0: Video: h264 (avc1 / 0x31637661), yuv420p(tv, unknown/bt709/iec61966-2-1, progressive), 1024x654, q=2-31, 5 fps, 10240 tbn
      Metadata:
        encoder         : Lavc61.19.100 libx264
      Side data:
        cpb: bitrate max/min/avg: 0/0/0 buffer size: 0 vbv_delay: N/A
[out#0/mp4 @ 0x600003a78000] video:106KiB audio:0KiB subtitle:0KiB other streams:0KiB global headers:0KiB muxing overhead: 2.105408%
frame=  119 fps=0.0 q=-1.0 Lsize=     109KiB time=00:00:23.40 bitrate=  38.0kbits/s speed=44.9x    
[libx264 @ 0x13d706140] frame I:1     Avg QP:10.38  size: 53953
[libx264 @ 0x13d706140] frame P:30    Avg QP:13.05  size:  1394
[libx264 @ 0x13d706140] frame B:88    Avg QP:22.96  size:   140
[libx264 @ 0x13d706140] consecutive B-frames:  0.8%  1.7%  0.0% 97.5%
[libx264 @ 0x13d706140] mb I  I16..4: 46.3% 20.7% 32.9%
[libx264 @ 0x13d706140] mb P  I16..4:  0.6%  0.1%  0.4%  P16..4:  1.2%  0.3%  0.1%  0.0%  0.0%    skip:97.3%
[libx264 @ 0x13d706140] mb B  I16..4:  0.0%  0.0%  0.0%  B16..8:  1.7%  0.1%  0.0%  direct: 0.0%  skip:98.2%  L0:45.8% L1:53.1% BI: 1.2%
[libx264 @ 0x13d706140] 8x8 transform intra:20.7% inter:40.9%
[libx264 @ 0x13d706140] coded y,uvDC,uvAC intra: 45.0% 18.4% 14.4% inter: 0.2% 0.1% 0.1%
[libx264 @ 0x13d706140] i16 v,h,dc,p: 47% 52%  0%  0%
[libx264 @ 0x13d706140] i8 v,h,dc,ddl,ddr,vr,hd,vl,hu: 45% 26% 28%  0%  0%  0%  0%  1%  0%
[libx264 @ 0x13d706140] i4 v,h,dc,ddl,ddr,vr,hd,vl,hu: 39% 33% 12%  2%  3%  3%  3%  2%  4%
[libx264 @ 0x13d706140] i8c dc,h,v,p: 65% 24% 10%  1%
[libx264 @ 0x13d706140] Weighted P-Frames: Y:0.0% UV:0.0%
[libx264 @ 0x13d706140] ref P L0: 74.1%  2.4% 13.1% 10.4%
[libx264 @ 0x13d706140] ref B L0: 60.0% 36.5%  3.4%
[libx264 @ 0x13d706140] ref B L1: 87.8% 12.2%
[libx264 @ 0x13d706140] kb/s:36.35
[ 678s]   videos/scene_seg_interactive/driver.mp4 placed (frames 281..399)
[ 678s]   screenshots/scene_seg_interactive_executed.png placed
ffmpeg version 7.1 Copyright (c) 2000-2024 the FFmpeg developers
  built with Apple clang version 13.1.6 (clang-1316.0.21.2.5)
  configuration: --prefix=/Volumes/tempdisk/sw --extra-cflags=-fno-stack-check --arch=arm64 --cc=/usr/bin/clang --enable-gpl --enable-libvmaf --enable-libopenjpeg --enable-libopus --enable-libmp3lame --enable-libx264 --enable-libx265 --enable-libvpx --enable-libwebp --enable-libass --enable-libfreetype --enable-fontconfig --enable-libtheora --enable-libvorbis --enable-libsnappy --enable-libaom --enable-libvidstab --enable-libzimg --enable-libsvtav1 --enable-libharfbuzz --enable-libkvazaar --pkg-config-flags=--static --enable-ffplay --enable-postproc --enable-neon --enable-runtime-cpudetect --disable-indev=qtkit --disable-indev=x11grab_xcb
  libavutil      59. 39.100 / 59. 39.100
  libavcodec     61. 19.100 / 61. 19.100
  libavformat    61.  7.100 / 61.  7.100
  libavdevice    61.  3.100 / 61.  3.100
  libavfilter    10.  4.100 / 10.  4.100
  libswscale      8.  3.100 /  8.  3.100
  libswresample   5.  3.100 /  5.  3.100
  libpostproc    58.  3.100 / 58.  3.100
Input #0, image2, from '/Users/runner/work/comfy-gpu-ci/comfy-gpu-ci/comfy-test-logs/SAM3-1009/dev/macos-desktop/debug/electron_inspect/frames/frame_%06d.png':
  Duration: 00:00:57.00, start: 0.000000, bitrate: N/A
  Stream #0:0: Video: png, rgb24(pc, gbr/bt709/iec61966-2-1), 1024x653, 5 fps, 5 tbr, 5 tbn
Stream mapping:
  Stream #0:0 -> #0:0 (png (native) -> h264 (libx264))
Press [q] to stop, [?] for help
[libx264 @ 0x121f05f50] using cpu capabilities: ARMv8 NEON
[libx264 @ 0x121f05f50] profile High, level 3.1, 4:2:0, 8-bit
[libx264 @ 0x121f05f50] 264 - core 164 r3190 7ed753b - H.264/MPEG-4 AVC codec - Copyleft 2003-2024 - http://www.videolan.org/x264.html - options: cabac=1 ref=3 deblock=1:0:0 analyse=0x3:0x113 me=hex subme=7 psy=1 psy_rd=1.00:0.00 mixed_ref=1 me_range=16 chroma_me=1 trellis=1 8x8dct=1 cqm=0 deadzone=21,11 fast_pskip=1 chroma_qp_offset=-2 threads=4 lookahead_threads=1 sliced_threads=0 nr=0 decimate=1 interlaced=0 bluray_compat=0 constrained_intra=0 bframes=3 b_pyramid=2 b_adapt=1 b_bias=0 direct=1 weightb=1 open_gop=0 weightp=2 keyint=250 keyint_min=5 scenecut=40 intra_refresh=0 rc_lookahead=40 rc=crf mbtree=1 crf=23.0 qcomp=0.60 qpmin=0 qpmax=69 qpstep=4 ip_ratio=1.40 aq=1:1.00
Output #0, mp4, to '/Users/runner/work/comfy-gpu-ci/comfy-gpu-ci/comfy-test-logs/SAM3-1009/dev/macos-desktop/videos/image_seg_point/driver.mp4':
  Metadata:
    encoder         : Lavf61.7.100
  Stream #0:0: Video: h264 (avc1 / 0x31637661), yuv420p(tv, unknown/bt709/iec61966-2-1, progressive), 1024x654, q=2-31, 5 fps, 10240 tbn
      Metadata:
        encoder         : Lavc61.19.100 libx264
      Side data:
        cpb: bitrate max/min/avg: 0/0/0 buffer size: 0 vbv_delay: N/A
[out#0/mp4 @ 0x600003a88000] video:105KiB audio:0KiB subtitle:0KiB other streams:0KiB global headers:0KiB muxing overhead: 1.580585%
frame=   71 fps=0.0 q=-1.0 Lsize=     107KiB time=00:00:13.80 bitrate=  63.6kbits/s speed=  46x    
[libx264 @ 0x121f05f50] frame I:2     Avg QP:12.29  size: 34324
[libx264 @ 0x121f05f50] frame P:18    Avg QP:16.14  size:  1845
[libx264 @ 0x121f05f50] frame B:51    Avg QP:22.70  size:   107
[libx264 @ 0x121f05f50] consecutive B-frames:  2.8%  2.8%  4.2% 90.1%
[libx264 @ 0x121f05f50] mb I  I16..4: 47.3% 28.2% 24.5%
[libx264 @ 0x121f05f50] mb P  I16..4:  0.8%  0.4%  0.6%  P16..4:  0.9%  0.2%  0.1%  0.0%  0.0%    skip:96.8%
[libx264 @ 0x121f05f50] mb B  I16..4:  0.1%  0.1%  0.0%  B16..8:  1.4%  0.0%  0.0%  direct: 0.0%  skip:98.4%  L0:46.2% L1:53.6% BI: 0.2%
[libx264 @ 0x121f05f50] 8x8 transform intra:28.0% inter:54.0%
[libx264 @ 0x121f05f50] coded y,uvDC,uvAC intra: 18.0% 19.1% 14.7% inter: 0.1% 0.2% 0.1%
[libx264 @ 0x121f05f50] i16 v,h,dc,p: 56% 39%  0%  5%
[libx264 @ 0x121f05f50] i8 v,h,dc,ddl,ddr,vr,hd,vl,hu: 55% 20% 21%  0%  1%  1%  1%  0%  0%
[libx264 @ 0x121f05f50] i4 v,h,dc,ddl,ddr,vr,hd,vl,hu: 34% 33% 16%  2%  3%  3%  4%  2%  3%
[libx264 @ 0x121f05f50] i8c dc,h,v,p: 71% 17%  8%  4%
[libx264 @ 0x121f05f50] Weighted P-Frames: Y:0.0% UV:0.0%
[libx264 @ 0x121f05f50] ref P L0: 83.3%  3.8% 11.2%  1.7%
[libx264 @ 0x121f05f50] ref B L0: 67.5% 30.8%  1.6%
[libx264 @ 0x121f05f50] ref B L1: 96.6%  3.4%
[libx264 @ 0x121f05f50] kb/s:60.46
[ 679s]   videos/image_seg_point/driver.mp4 placed (frames 432..502)
[ 679s]   screenshots/image_seg_point_executed.png placed
ffmpeg version 7.1 Copyright (c) 2000-2024 the FFmpeg developers
  built with Apple clang version 13.1.6 (clang-1316.0.21.2.5)
  configuration: --prefix=/Volumes/tempdisk/sw --extra-cflags=-fno-stack-check --arch=arm64 --cc=/usr/bin/clang --enable-gpl --enable-libvmaf --enable-libopenjpeg --enable-libopus --enable-libmp3lame --enable-libx264 --enable-libx265 --enable-libvpx --enable-libwebp --enable-libass --enable-libfreetype --enable-fontconfig --enable-libtheora --enable-libvorbis --enable-libsnappy --enable-libaom --enable-libvidstab --enable-libzimg --enable-libsvtav1 --enable-libharfbuzz --enable-libkvazaar --pkg-config-flags=--static --enable-ffplay --enable-postproc --enable-neon --enable-runtime-cpudetect --disable-indev=qtkit --disable-indev=x11grab_xcb
  libavutil      59. 39.100 / 59. 39.100
  libavcodec     61. 19.100 / 61. 19.100
  libavformat    61.  7.100 / 61.  7.100
  libavdevice    61.  3.100 / 61.  3.100
  libavfilter    10.  4.100 / 10.  4.100
  libswscale      8.  3.100 /  8.  3.100
  libswresample   5.  3.100 /  5.  3.100
  libpostproc    58.  3.100 / 58.  3.100
Input #0, image2, from '/Users/runner/work/comfy-gpu-ci/comfy-gpu-ci/comfy-test-logs/SAM3-1009/dev/macos-desktop/debug/electron_inspect/frames/frame_%06d.png':
  Duration: 00:00:35.60, start: 0.000000, bitrate: N/A
  Stream #0:0: Video: png, rgb24(pc, gbr/bt709/iec61966-2-1), 1024x653, 5 fps, 5 tbr, 5 tbn
Stream mapping:
  Stream #0:0 -> #0:0 (png (native) -> h264 (libx264))
Press [q] to stop, [?] for help
[libx264 @ 0x11f608220] using cpu capabilities: ARMv8 NEON
[libx264 @ 0x11f608220] profile High, level 3.1, 4:2:0, 8-bit
[libx264 @ 0x11f608220] 264 - core 164 r3190 7ed753b - H.264/MPEG-4 AVC codec - Copyleft 2003-2024 - http://www.videolan.org/x264.html - options: cabac=1 ref=3 deblock=1:0:0 analyse=0x3:0x113 me=hex subme=7 psy=1 psy_rd=1.00:0.00 mixed_ref=1 me_range=16 chroma_me=1 trellis=1 8x8dct=1 cqm=0 deadzone=21,11 fast_pskip=1 chroma_qp_offset=-2 threads=4 lookahead_threads=1 sliced_threads=0 nr=0 decimate=1 interlaced=0 bluray_compat=0 constrained_intra=0 bframes=3 b_pyramid=2 b_adapt=1 b_bias=0 direct=1 weightb=1 open_gop=0 weightp=2 keyint=250 keyint_min=5 scenecut=40 intra_refresh=0 rc_lookahead=40 rc=crf mbtree=1 crf=23.0 qcomp=0.60 qpmin=0 qpmax=69 qpstep=4 ip_ratio=1.40 aq=1:1.00
Output #0, mp4, to '/Users/runner/work/comfy-gpu-ci/comfy-gpu-ci/comfy-test-logs/SAM3-1009/dev/macos-desktop/videos/image_seg_text/driver.mp4':
  Metadata:
    encoder         : Lavf61.7.100
  Stream #0:0: Video: h264 (avc1 / 0x31637661), yuv420p(tv, unknown/bt709/iec61966-2-1, progressive), 1024x654, q=2-31, 5 fps, 10240 tbn
      Metadata:
        encoder         : Lavc61.19.100 libx264
      Side data:
        cpb: bitrate max/min/avg: 0/0/0 buffer size: 0 vbv_delay: N/A
[out#0/mp4 @ 0x600002060300] video:116KiB audio:0KiB subtitle:0KiB other streams:0KiB global headers:0KiB muxing overhead: 1.502577%
frame=   77 fps=0.0 q=-1.0 Lsize=     118KiB time=00:00:15.00 bitrate=  64.4kbits/s speed=40.2x    
[libx264 @ 0x11f608220] frame I:2     Avg QP:12.40  size: 43194
[libx264 @ 0x11f608220] frame P:20    Avg QP:16.01  size:  1319
[libx264 @ 0x11f608220] frame B:55    Avg QP:22.38  size:   100
[libx264 @ 0x11f608220] consecutive B-frames:  3.9%  2.6%  0.0% 93.5%
[libx264 @ 0x11f608220] mb I  I16..4: 43.3% 24.9% 31.9%
[libx264 @ 0x11f608220] mb P  I16..4:  0.5%  0.2%  0.6%  P16..4:  0.9%  0.2%  0.1%  0.0%  0.0%    skip:97.4%
[libx264 @ 0x11f608220] mb B  I16..4:  0.1%  0.0%  0.0%  B16..8:  1.4%  0.1%  0.0%  direct: 0.1%  skip:98.3%  L0:44.1% L1:55.9% BI: 0.1%
[libx264 @ 0x11f608220] 8x8 transform intra:24.2% inter:62.6%
[libx264 @ 0x11f608220] coded y,uvDC,uvAC intra: 36.9% 17.9% 14.2% inter: 0.1% 0.2% 0.0%
[libx264 @ 0x11f608220] i16 v,h,dc,p: 51% 43%  0%  5%
[libx264 @ 0x11f608220] i8 v,h,dc,ddl,ddr,vr,hd,vl,hu: 53% 16% 24%  0%  2%  2%  1%  0%  1%
[libx264 @ 0x11f608220] i4 v,h,dc,ddl,ddr,vr,hd,vl,hu: 41% 32% 13%  2%  2%  2%  3%  2%  3%
[libx264 @ 0x11f608220] i8c dc,h,v,p: 73% 15%  7%  5%
[libx264 @ 0x11f608220] Weighted P-Frames: Y:0.0% UV:0.0%
[libx264 @ 0x11f608220] ref P L0: 74.2%  1.5% 14.2% 10.1%
[libx264 @ 0x11f608220] ref B L0: 76.8% 20.8%  2.4%
[libx264 @ 0x11f608220] ref B L1: 92.3%  7.7%
[libx264 @ 0x11f608220] kb/s:61.42
[ 679s]   videos/image_seg_text/driver.mp4 placed (frames 539..615)
[ 679s]   screenshots/image_seg_text_executed.png placed
ffmpeg version 7.1 Copyright (c) 2000-2024 the FFmpeg developers
  built with Apple clang version 13.1.6 (clang-1316.0.21.2.5)
  configuration: --prefix=/Volumes/tempdisk/sw --extra-cflags=-fno-stack-check --arch=arm64 --cc=/usr/bin/clang --enable-gpl --enable-libvmaf --enable-libopenjpeg --enable-libopus --enable-libmp3lame --enable-libx264 --enable-libx265 --enable-libvpx --enable-libwebp --enable-libass --enable-libfreetype --enable-fontconfig --enable-libtheora --enable-libvorbis --enable-libsnappy --enable-libaom --enable-libvidstab --enable-libzimg --enable-libsvtav1 --enable-libharfbuzz --enable-libkvazaar --pkg-config-flags=--static --enable-ffplay --enable-postproc --enable-neon --enable-runtime-cpudetect --disable-indev=qtkit --disable-indev=x11grab_xcb
  libavutil      59. 39.100 / 59. 39.100
  libavcodec     61. 19.100 / 61. 19.100
  libavformat    61.  7.100 / 61.  7.100
  libavdevice    61.  3.100 / 61.  3.100
  libavfilter    10.  4.100 / 10.  4.100
  libswscale      8.  3.100 /  8.  3.100
  libswresample   5.  3.100 /  5.  3.100
  libpostproc    58.  3.100 / 58.  3.100
Input #0, image2, from '/Users/runner/work/comfy-gpu-ci/comfy-gpu-ci/comfy-test-logs/SAM3-1009/dev/macos-desktop/debug/electron_inspect/frames/frame_%06d.png':
  Duration: 00:00:13.40, start: 0.000000, bitrate: N/A
  Stream #0:0: Video: png, rgb24(pc, gbr/bt709/iec61966-2-1), 1024x653, 5 fps, 5 tbr, 5 tbn
Stream mapping:
  Stream #0:0 -> #0:0 (png (native) -> h264 (libx264))
Press [q] to stop, [?] for help
[libx264 @ 0x127f05950] using cpu capabilities: ARMv8 NEON
[libx264 @ 0x127f05950] profile High, level 3.1, 4:2:0, 8-bit
[libx264 @ 0x127f05950] 264 - core 164 r3190 7ed753b - H.264/MPEG-4 AVC codec - Copyleft 2003-2024 - http://www.videolan.org/x264.html - options: cabac=1 ref=3 deblock=1:0:0 analyse=0x3:0x113 me=hex subme=7 psy=1 psy_rd=1.00:0.00 mixed_ref=1 me_range=16 chroma_me=1 trellis=1 8x8dct=1 cqm=0 deadzone=21,11 fast_pskip=1 chroma_qp_offset=-2 threads=4 lookahead_threads=1 sliced_threads=0 nr=0 decimate=1 interlaced=0 bluray_compat=0 constrained_intra=0 bframes=3 b_pyramid=2 b_adapt=1 b_bias=0 direct=1 weightb=1 open_gop=0 weightp=2 keyint=250 keyint_min=5 scenecut=40 intra_refresh=0 rc_lookahead=40 rc=crf mbtree=1 crf=23.0 qcomp=0.60 qpmin=0 qpmax=69 qpstep=4 ip_ratio=1.40 aq=1:1.00
Output #0, mp4, to '/Users/runner/work/comfy-gpu-ci/comfy-gpu-ci/comfy-test-logs/SAM3-1009/dev/macos-desktop/videos/scene_seg/driver.mp4':
  Metadata:
    encoder         : Lavf61.7.100
  Stream #0:0: Video: h264 (avc1 / 0x31637661), yuv420p(tv, unknown/bt709/iec61966-2-1, progressive), 1024x654, q=2-31, 5 fps, 10240 tbn
      Metadata:
        encoder         : Lavc61.19.100 libx264
      Side data:
        cpb: bitrate max/min/avg: 0/0/0 buffer size: 0 vbv_delay: N/A
[out#0/mp4 @ 0x600001410000] video:125KiB audio:0KiB subtitle:0KiB other streams:0KiB global headers:0KiB muxing overhead: 1.299413%
frame=   67 fps=0.0 q=-1.0 Lsize=     126KiB time=00:00:13.00 bitrate=  79.6kbits/s speed=  47x    
[libx264 @ 0x127f05950] frame I:2     Avg QP:11.92  size: 34694
[libx264 @ 0x127f05950] frame P:17    Avg QP:17.02  size:  2825
[libx264 @ 0x127f05950] frame B:48    Avg QP:22.48  size:   199
[libx264 @ 0x127f05950] consecutive B-frames:  3.0%  3.0%  4.5% 89.6%
[libx264 @ 0x127f05950] mb I  I16..4: 50.6% 24.5% 24.8%
[libx264 @ 0x127f05950] mb P  I16..4:  1.0%  0.4%  1.0%  P16..4:  1.6%  0.4%  0.2%  0.0%  0.0%    skip:95.5%
[libx264 @ 0x127f05950] mb B  I16..4:  0.1%  0.1%  0.0%  B16..8:  2.0%  0.1%  0.0%  direct: 0.0%  skip:97.7%  L0:53.3% L1:46.2% BI: 0.5%
[libx264 @ 0x127f05950] 8x8 transform intra:23.5% inter:34.6%
[libx264 @ 0x127f05950] coded y,uvDC,uvAC intra: 18.6% 17.6% 13.6% inter: 0.2% 0.3% 0.2%
[libx264 @ 0x127f05950] i16 v,h,dc,p: 63% 34%  0%  2%
[libx264 @ 0x127f05950] i8 v,h,dc,ddl,ddr,vr,hd,vl,hu: 60% 18% 19%  0%  1%  1%  1%  0%  0%
[libx264 @ 0x127f05950] i4 v,h,dc,ddl,ddr,vr,hd,vl,hu: 32% 34% 17%  2%  3%  2%  3%  2%  4%
[libx264 @ 0x127f05950] i8c dc,h,v,p: 71% 17%  9%  2%
[libx264 @ 0x127f05950] Weighted P-Frames: Y:0.0% UV:0.0%
[libx264 @ 0x127f05950] ref P L0: 75.2%  3.2% 16.0%  5.6%
[libx264 @ 0x127f05950] ref B L0: 82.9% 14.1%  3.0%
[libx264 @ 0x127f05950] ref B L1: 95.1%  4.9%
[libx264 @ 0x127f05950] kb/s:75.81
[ 679s]   videos/scene_seg/driver.mp4 placed (frames 650..716)
[ 679s]   screenshots/scene_seg_executed.png placed
[ 680s]   removed /Users/runner/work/comfy-gpu-ci/comfy-gpu-ci/comfy-test-logs/SAM3-1009/dev/macos-desktop/debug/electron_inspect/frames after successful encode
